<svg xmlns="http://www.w3.org/2000/svg" id="Capa_1" data-name="Capa 1" viewBox="0 0 226 226"><defs><style>      .cls-1 {        fill: #fff;        stroke-width: 0px;      }    </style></defs><path class="cls-1" d="m222.02,59.98L115.24,1.41c-1.39-.76-3.08-.76-4.47,0L3.98,59.98c-1.49.82-2.41,2.38-2.41,4.08s.93,3.26,2.41,4.08l40.6,22.27v90.91h136.36v-90.66l11.73-6.44c1.25,2.8,1.98,6.16,1.98,9.69v107.08l-7.56,24.17h24.22l-7.36-23.55v-107.71c0-5.2-1.13-10.07-3.1-14.18l21.14-11.6c1.49-.82,2.41-2.38,2.41-4.08s-.93-3.26-2.41-4.08Zm-50.37,112.03H53.89v-76.5l56.87,31.19c.7.38,1.47.57,2.24.57s1.54-.19,2.24-.57l56.41-30.94v76.25Zm23.7-99.86c-2.43-2.21-5.27-3.75-8.38-4.39l-73.74-14.74-1.82,9.12,73.72,14.73c.36.07.71.18,1.05.31l-73.17,40.13L15.89,64.06,113,10.79l97.11,53.26-14.76,8.1Z"></path></svg>