<svg xmlns="http://www.w3.org/2000/svg" id="Capa_3" data-name="Capa 3" viewBox="0 0 1183.9 272.03"><defs><style>      .cls-1 {        fill: #7c9ac0;      }      .cls-1, .cls-2, .cls-3, .cls-4 {        stroke-width: 0px;      }      .cls-2 {        fill: #fff;      }      .cls-3 {        fill: #bb6125;      }      .cls-4 {        fill: #e6c5af;      }    </style></defs><g><path class="cls-1" d="m158.15,136.01c0,29.22-23.7,52.92-52.93,52.92s-52.92-23.7-52.92-52.92,23.69-52.92,52.92-52.92,52.93,23.69,52.93,52.92"/><path class="cls-2" d="m143.76,136.01c0,21.28-17.26,38.54-38.54,38.54s-38.53-17.26-38.53-38.54,17.25-38.53,38.53-38.53,38.54,17.26,38.54,38.53"/><polygon class="cls-3" points="79.91 112.16 95.82 112.13 95.82 122.58 93.37 122.58 93.37 151.34 99.11 157.39 111.04 157.39 116.7 151.4 116.7 122.49 114.25 122.49 114.25 112.25 130.04 112.25 130.04 122.53 127.61 122.53 127.61 156.47 116.14 168.68 93.95 168.68 82.45 156.54 82.45 122.49 79.91 122.49 79.91 112.16"/><path class="cls-1" d="m105.68,154.76h-1.49v-3.02h1.49v3.02Zm3.99-23.53h5.66l-10.36-10.39-10.26,10.33h5.62l-3.08,20.57h6.24v3.71h2.9v-3.71h6.06l-2.77-20.52Z"/><polygon class="cls-4" points="113.11 101.13 113.11 114.96 105.03 117.33 96.94 115.07 96.94 101.13 104.98 103.26 113.11 101.13"/><path class="cls-2" d="m100.66,113.39v-8.42h2.78l2.18,3.09c.62.88,1.23,1.93,1.71,2.88h.03c-.14-1.11-.19-2.25-.19-3.52v-2.45h2.19v8.42h-2.49l-2.25-3.25c-.62-.91-1.33-1.99-1.82-2.98h-.06c.08,1.12.12,2.32.12,3.69v2.54h-2.19Z"/><polygon class="cls-2" points="108.63 146 105.64 146 105.64 142.88 104.19 142.88 104.19 146 101.1 146 101.1 147.46 104.19 147.46 104.19 154.76 105.68 154.76 105.68 147.46 108.63 147.46 108.63 146"/><path class="cls-2" d="m58.65,151.29l4.03-1.19c1.36-.4,1.82-1.15,1.57-2-.27-.92-1.06-1.28-2.41-.88l-4.03,1.19-.37-1.26,3.95-1.16c2.14-.63,3.4.19,3.9,1.86.47,1.6-.12,2.9-2.3,3.54l-3.96,1.17-.37-1.26Z"/><path class="cls-2" d="m64.1,143.9l-7.17.88-.18-1.49,2.84-2.23c.74-.58,1.52-1.09,2.25-1.52v-.02c-.95.21-1.87.35-2.96.48l-2.5.31-.15-1.21,7.17-.88.17,1.35-2.92,2.26c-.73.55-1.55,1.14-2.32,1.59l.02.03c.92-.17,1.86-.29,3.04-.44l2.56-.31.15,1.2Z"/><rect class="cls-2" x="56.22" y="135.63" width="7.22" height="1.32" transform="translate(-.79 .35) rotate(-.33)"/><path class="cls-2" d="m63.57,132.63l-7.41,1.59.14-1.43,3.36-.65c.93-.18,1.8-.33,2.69-.44v-.02c-.83-.28-1.68-.62-2.52-1l-3.17-1.38.14-1.4,6.92,3.21-.15,1.5Z"/><polygon class="cls-2" points="61.99 123.43 61.35 126.07 63.41 126.57 64.12 123.62 65.17 123.87 64.14 128.1 57.14 126.4 58.13 122.32 59.18 122.57 58.5 125.37 60.31 125.81 60.95 123.17 61.99 123.43"/><path class="cls-2" d="m58.81,120.43c.1-.49.31-1.2.58-1.91.38-.97.79-1.56,1.35-1.87.45-.25,1-.28,1.57-.05.87.34,1.23,1.16,1.21,1.88h.03c.37-.4.95-.5,1.66-.42.92.12,1.77.24,2.08.2l-.49,1.27c-.24.02-.85-.03-1.76-.17-.95-.15-1.35.06-1.65.75l-.24.62,2.76,1.08-.47,1.22-6.64-2.59Zm3.45-.06l.28-.73c.32-.83.08-1.52-.58-1.78-.74-.29-1.28.1-1.59.9-.15.39-.22.65-.24.78l2.13.83Z"/><path class="cls-2" d="m66.42,116.89c.42-.26.92-.71,1.25-1.31.41-.74.29-1.34-.22-1.63-.48-.26-.93-.1-1.67.54-.95.83-1.87,1.19-2.78.69-1.03-.57-1.34-1.87-.59-3.23.38-.68.81-1.11,1.16-1.34l.77.79c-.24.16-.67.5-.99,1.09-.41.73-.19,1.27.18,1.47.49.27.91.03,1.71-.64,1.02-.87,1.87-1.1,2.78-.59,1.01.56,1.47,1.81.57,3.44-.37.67-.94,1.25-1.34,1.49l-.82-.78Z"/><rect class="cls-2" x="67.15" y="106.72" width="1.32" height="7.21" transform="translate(-61.52 103.83) rotate(-55.55)"/><path class="cls-2" d="m66.49,106.03c.31-.5.75-1.09,1.27-1.68.89-1.01,1.71-1.53,2.56-1.67.88-.15,1.81.09,2.74.9.97.84,1.4,1.81,1.42,2.73.02.97-.48,2.05-1.4,3.1-.51.58-.92.99-1.24,1.27l-5.34-4.67Zm5.47,3.03c.14-.12.33-.33.5-.53,1.13-1.28,1.1-2.67-.28-3.87-1.19-1.06-2.48-.96-3.57.28-.27.31-.45.56-.54.72l3.88,3.39Z"/><path class="cls-2" d="m76.25,103.11l.83,1.97-1.04.87-2.83-7.03,1.29-1.07,6.41,4.05-1.08.9-1.81-1.15-1.76,1.46Zm.95-2.09l-1.57-1c-.39-.25-.79-.55-1.14-.81l-.02.02c.18.39.42.84.6,1.26l.71,1.72,1.42-1.18Z"/><path class="cls-2" d="m77.91,95.35c.45-.38,1.06-.8,1.73-1.19,1.16-.68,2.11-.91,2.96-.77.89.14,1.69.66,2.31,1.72.65,1.11.76,2.16.48,3.04-.29.93-1.11,1.79-2.32,2.5-.67.39-1.19.65-1.58.82l-3.59-6.12Zm4.23,4.61c.17-.07.41-.21.64-.34,1.48-.86,1.88-2.19.96-3.76-.8-1.38-2.05-1.7-3.48-.87-.36.21-.6.39-.74.52l2.61,4.45Z"/><path class="cls-2" d="m94.43,95.34c-.24.25-.84.62-1.66.9-2.17.73-3.94-.18-4.65-2.26-.76-2.25.34-4.14,2.43-4.84.82-.28,1.47-.3,1.77-.26l.06,1.08c-.37-.03-.86,0-1.43.19-1.39.47-2.1,1.68-1.54,3.32.51,1.5,1.71,2.16,3.21,1.66.51-.17,1-.45,1.27-.71l.53.91Z"/><path class="cls-2" d="m96.5,93.05l-.26,2.12-1.34.23,1.03-7.51,1.66-.29,3.56,6.7-1.39.25-1-1.9-2.26.4Zm1.86-1.34l-.87-1.65c-.21-.41-.41-.87-.59-1.27h-.02c-.03.43-.05.95-.1,1.39l-.24,1.84,1.83-.32Z"/><polygon class="cls-2" points="102.15 88.21 100.1 88.31 100.04 87.21 105.49 86.93 105.54 88.04 103.47 88.14 103.78 94.25 102.46 94.32 102.15 88.21"/><path class="cls-2" d="m112.88,91.06c-.23,2.41-1.81,3.65-3.8,3.46-2.02-.19-3.16-1.86-2.96-3.97.21-2.21,1.74-3.63,3.76-3.44,2.1.2,3.19,1.9,3,3.95m-5.37-.4c-.14,1.46.49,2.69,1.75,2.81,1.27.12,2.09-.99,2.23-2.49.13-1.36-.42-2.7-1.73-2.82-1.3-.12-2.1,1.02-2.25,2.5m4.21-4.96l-1.45,1.15-1.06-.1,1.06-1.19,1.45.14Z"/><polygon class="cls-2" points="115.11 87.98 116.39 88.3 114.92 94.24 117.8 94.95 117.54 96.02 113.38 94.99 115.11 87.98"/><rect class="cls-2" x="116.5" y="92.48" width="7.21" height="1.32" transform="translate(-7.42 175.83) rotate(-70.75)"/><path class="cls-2" d="m125.61,99.22c-.35.01-1.04-.14-1.82-.51-2.07-.99-2.71-2.88-1.76-4.87,1.02-2.15,3.13-2.73,5.12-1.78.78.37,1.27.81,1.45,1.05l-.71.82c-.24-.28-.61-.6-1.15-.86-1.32-.63-2.68-.26-3.43,1.31-.68,1.43-.28,2.75,1.15,3.44.48.23,1.03.38,1.41.38l-.26,1.03Z"/><path class="cls-2" d="m128.66,98.97l-1.65,1.35-1.13-.76,5.94-4.7,1.4.93-2.07,7.3-1.17-.79.59-2.06-1.9-1.27Zm2.27.32l.52-1.79c.13-.44.31-.92.45-1.32h-.02c-.32.27-.69.63-1.03.92l-1.45,1.17,1.54,1.03Z"/><path class="cls-2" d="m138.45,100.02c.47.35,1.02.84,1.56,1.41.93.97,1.38,1.83,1.44,2.7.07.89-.25,1.8-1.13,2.65-.92.89-1.92,1.24-2.84,1.18-.97-.07-2-.66-2.97-1.67-.54-.56-.9-1-1.16-1.35l5.11-4.92Zm-3.49,5.18c.1.15.3.35.48.54,1.18,1.24,2.56,1.32,3.88.05,1.15-1.1,1.17-2.39.03-3.58-.29-.3-.52-.49-.68-.6l-3.71,3.58Z"/><polygon class="cls-2" points="143.05 111.61 141.48 109.39 139.75 110.62 141.51 113.1 140.63 113.72 138.11 110.17 143.99 105.99 146.42 109.42 145.54 110.04 143.87 107.69 142.35 108.77 143.93 110.99 143.05 111.61"/><polygon class="cls-2" points="147.45 111.1 148.08 112.26 142.69 115.16 144.1 117.77 143.12 118.29 141.09 114.52 147.45 111.1"/><path class="cls-2" d="m144.29,120.94l6.9-2.13.44,1.43-2.41,2.7c-.62.7-1.3,1.34-1.95,1.89v.02c.9-.37,1.78-.67,2.84-1l2.4-.74.36,1.17-6.89,2.13-.4-1.3,2.47-2.74c.62-.67,1.33-1.4,2-1.97l-.02-.03c-.88.33-1.78.62-2.92.97l-2.47.76-.36-1.16Z"/><path class="cls-2" d="m150.75,133.48c-2.4.32-3.96-.96-4.22-2.93-.27-2.02,1.1-3.49,3.21-3.77,2.19-.29,3.93.88,4.19,2.9.28,2.09-1.14,3.53-3.18,3.8m-.81-5.32c-1.45.19-2.51,1.08-2.35,2.33.16,1.26,1.43,1.82,2.92,1.62,1.35-.18,2.53-1.01,2.36-2.32-.17-1.29-1.46-1.83-2.94-1.63"/><path class="cls-2" d="m154.17,134.98c.07.49.12,1.23.1,1.99-.03,1.04-.21,1.74-.63,2.21-.34.39-.85.6-1.46.58-.93-.02-1.55-.67-1.78-1.35h-.03c-.21.51-.72.81-1.42.97-.9.2-1.74.37-2.03.52l.03-1.36c.22-.1.81-.26,1.71-.44.95-.18,1.26-.51,1.29-1.26l.02-.66-2.96-.07.03-1.3,7.12.18Zm-3.22,1.23l-.02.78c-.02.89.43,1.46,1.15,1.47.79.02,1.17-.53,1.19-1.38,0-.42-.01-.69-.04-.81l-2.28-.06Z"/><polygon class="cls-2" points="152.6 143.09 152.94 141.06 154.03 141.24 153.14 146.62 152.06 146.44 152.39 144.39 146.36 143.4 146.57 142.1 152.6 143.09"/><polygon class="cls-2" points="147.74 150.82 148.52 148.22 146.49 147.61 145.62 150.52 144.58 150.21 145.83 146.04 152.74 148.11 151.54 152.13 150.5 151.82 151.33 149.06 149.55 148.52 148.76 151.13 147.74 150.82"/><path class="cls-2" d="m93.33,184.44c-.35.06-1.05.01-1.89-.24-2.2-.68-3.12-2.47-2.47-4.58.7-2.29,2.71-3.18,4.83-2.53.83.26,1.38.62,1.59.83l-.59.92c-.29-.24-.7-.51-1.28-.69-1.41-.43-2.7.14-3.22,1.81-.47,1.52.13,2.78,1.65,3.25.51.16,1.08.22,1.46.17l-.1,1.06Z"/><polygon class="cls-2" points="98.71 178.28 98.37 181.17 101.43 181.53 101.77 178.64 103.08 178.8 102.23 186.01 100.92 185.86 101.29 182.68 98.24 182.32 97.87 185.5 96.55 185.34 97.4 178.13 98.71 178.28"/><rect class="cls-2" x="105.7" y="178.74" width="1.33" height="7.26" transform="translate(-4.57 2.74) rotate(-1.45)"/><polygon class="cls-2" points="109.51 178.57 110.82 178.38 111.72 184.47 114.67 184.04 114.83 185.14 110.57 185.76 109.51 178.57"/><polygon class="cls-2" points="120.77 180.17 118.15 180.97 118.77 183.01 121.7 182.12 122.01 183.16 117.82 184.44 115.71 177.49 119.75 176.26 120.07 177.3 117.29 178.14 117.83 179.94 120.46 179.14 120.77 180.17"/></g><g><rect class="cls-2" x="536.19" y="83.01" width="1" height="106"/><g><path class="cls-2" d="m188.32,98.37v18.59c0,7.86,3.66,10.87,8.18,10.87,5.11,0,8.63-3.29,8.63-10.87v-18.59h2.2v18.41c0,9.46-5.12,12.88-10.92,12.88-5.39,0-10.28-3.11-10.28-12.56v-18.73h2.19Z"/><path class="cls-2" d="m214.73,112.48c0-2.01-.05-3.52-.18-5.25h2.06l.14,3.93h.09c1.19-2.47,3.97-4.43,7.54-4.43,2.1,0,7.67,1.05,7.67,9.27v13.16h-2.19v-12.97c0-4.02-1.55-7.63-6.08-7.63-3.06,0-5.71,2.19-6.58,5.07-.14.5-.28,1.23-.28,1.92v13.61h-2.19v-16.67Z"/><path class="cls-2" d="m239.22,107.23h2.19v21.93h-2.19v-21.93Zm1.01-4.39c-1.01,0-1.69-.87-1.69-1.87s.78-1.92,1.78-1.92,1.73.87,1.73,1.92-.69,1.87-1.78,1.87h-.04Z"/><path class="cls-2" d="m248.08,107.23l5.12,13.62c.87,2.15,1.55,3.97,2.15,5.85h.09c.59-1.83,1.42-3.74,2.24-5.85l5.21-13.62h2.28l-8.91,21.93h-1.92l-8.59-21.93h2.33Z"/><path class="cls-2" d="m283.4,116.23c.04-3.06-1.24-7.67-6.54-7.67-4.84,0-6.9,4.29-7.31,7.67h13.85Zm-13.98,1.74c0,6.99,3.84,9.78,8.36,9.78,3.2,0,4.84-.64,6.08-1.23l.55,1.69c-.82.46-3.06,1.42-6.9,1.42-6.3,0-10.23-4.57-10.23-11.01,0-7.31,4.2-11.88,9.87-11.88,7.18,0,8.54,6.76,8.54,9.91,0,.59,0,.91-.09,1.32h-16.17Z"/><path class="cls-2" d="m291.22,113.81c0-2.19-.04-4.43-.18-6.58h2.01l.09,4.43h.14c.96-2.79,3.24-4.93,6.21-4.93.32,0,.64.05.91.09v2.06c-.32-.05-.64-.05-1.05-.05-3.01,0-5.16,2.6-5.76,6.12-.14.64-.18,1.37-.18,2.1v12.11h-2.19v-15.35Z"/><path class="cls-2" d="m303.82,126.28c1.19.73,2.97,1.51,4.94,1.51,3.47,0,5.11-1.87,5.11-4.16,0-2.42-1.46-3.7-4.61-4.98-3.61-1.37-5.57-3.34-5.57-5.99,0-3.2,2.51-5.94,6.76-5.94,2.01,0,3.75.59,4.84,1.37l-.82,1.78c-.78-.55-2.19-1.33-4.38-1.33-2.79,0-4.25,1.79-4.25,3.79,0,2.28,1.55,3.24,4.52,4.48,3.57,1.42,5.67,3.2,5.67,6.53,0,3.75-2.92,6.26-7.4,6.26-2.1,0-4.11-.59-5.57-1.51l.78-1.83Z"/><path class="cls-2" d="m321.78,107.23h2.19v21.93h-2.19v-21.93Zm1.01-4.39c-1.01,0-1.69-.87-1.69-1.87s.77-1.92,1.78-1.92,1.73.87,1.73,1.92-.68,1.87-1.78,1.87h-.04Z"/><path class="cls-2" d="m346.64,115.91c0-.59-.05-1.37-.23-2.01-.73-2.92-3.33-5.35-6.89-5.35-4.8,0-7.81,4.16-7.81,9.82,0,4.93,2.47,9.46,7.68,9.46,3.15,0,6.12-2.1,7.03-5.71.18-.55.23-1.14.23-1.83v-4.39Zm2.19-19.23v27.41c0,1.6.05,3.52.19,5.07h-1.96l-.18-4.16h-.09c-1.14,2.42-3.75,4.66-7.81,4.66-5.44,0-9.46-4.52-9.46-11.05-.05-7.31,4.48-11.88,9.87-11.88,3.79,0,6.21,1.96,7.17,3.88h.09v-13.93h2.19Z"/><path class="cls-2" d="m367.65,117.42c-4.79-.14-11.1.6-11.1,5.85,0,3.15,2.1,4.57,4.39,4.57,3.65,0,5.76-2.24,6.48-4.39.19-.46.23-.96.23-1.33v-4.7Zm2.2,6.53c0,1.74.05,3.52.32,5.21h-2.01l-.32-3.15h-.09c-1.1,1.69-3.52,3.66-7.03,3.66-4.43,0-6.44-3.11-6.44-6.03,0-5.07,4.43-8.13,13.38-8.04v-.59c0-2.15-.41-6.49-5.62-6.44-1.92,0-3.93.5-5.53,1.65l-.68-1.6c2.01-1.32,4.47-1.87,6.44-1.87,6.35,0,7.58,4.75,7.58,8.63v8.59Z"/><path class="cls-2" d="m392.23,115.91c0-.59-.04-1.37-.23-2.01-.73-2.92-3.33-5.35-6.9-5.35-4.8,0-7.81,4.16-7.81,9.82,0,4.93,2.47,9.46,7.68,9.46,3.15,0,6.12-2.1,7.04-5.71.18-.55.23-1.14.23-1.83v-4.39Zm2.19-19.23v27.41c0,1.6.05,3.52.18,5.07h-1.96l-.18-4.16h-.09c-1.14,2.42-3.75,4.66-7.81,4.66-5.44,0-9.45-4.52-9.45-11.05-.05-7.31,4.47-11.88,9.87-11.88,3.79,0,6.21,1.96,7.17,3.88h.09v-13.93h2.19Z"/><path class="cls-2" d="m209.02,173.75c-1.55.78-4.52,1.55-8.32,1.55-7.45,0-14.57-4.75-14.57-15.67,0-9.14,5.89-16.04,15.62-16.04,3.93,0,6.21.87,7.13,1.32l-.68,1.83c-1.55-.78-3.79-1.33-6.4-1.33-8.31,0-13.39,5.39-13.39,14.25,0,8.36,4.75,13.75,13.02,13.75,2.6,0,5.16-.55,6.94-1.42l.64,1.74Z"/><path class="cls-2" d="m225.46,163.11c-4.79-.14-11.1.6-11.1,5.85,0,3.15,2.1,4.57,4.39,4.57,3.65,0,5.76-2.24,6.49-4.39.18-.46.23-.96.23-1.33v-4.71Zm2.19,6.53c0,1.74.05,3.52.32,5.21h-2.01l-.32-3.15h-.09c-1.1,1.69-3.52,3.66-7.03,3.66-4.43,0-6.44-3.11-6.44-6.03,0-5.07,4.43-8.13,13.38-8.04v-.59c0-2.15-.41-6.49-5.62-6.44-1.92,0-3.93.5-5.53,1.65l-.69-1.6c2.01-1.32,4.48-1.87,6.44-1.87,6.35,0,7.58,4.75,7.58,8.63v8.59Z"/><path class="cls-2" d="m237.76,148.08v4.84h6.26v1.78h-6.26v14.25c0,2.79.87,4.53,3.2,4.53,1.14,0,1.97-.14,2.51-.32l.28,1.64c-.73.27-1.74.5-3.06.5-1.6,0-2.92-.5-3.75-1.51-1.01-1.14-1.37-3.02-1.37-5.25v-13.84h-3.7v-1.78h3.7v-4.02l2.19-.82Z"/><path class="cls-2" d="m262.29,143.42l-5.57,6.3h-1.69l4.07-6.3h3.2Zm-5.35,30.11c4.57,0,8.18-4.11,8.18-9.73,0-4.02-2.24-9.55-8.04-9.55s-8.13,4.98-8.13,9.69c0,5.48,3.47,9.6,7.95,9.6h.04Zm-.14,1.83c-5.66,0-10.05-4.43-10.05-11.29,0-7.49,4.93-11.65,10.37-11.65,6.08,0,10.19,4.57,10.19,11.28,0,8.13-5.62,11.65-10.46,11.65h-.05Z"/><rect class="cls-2" x="272.9" y="142.37" width="2.19" height="32.48"/><path class="cls-2" d="m282.58,152.92h2.19v21.93h-2.19v-21.93Zm1.01-4.38c-1.01,0-1.69-.87-1.69-1.87s.78-1.92,1.78-1.92,1.73.87,1.73,1.92-.68,1.87-1.78,1.87h-.04Z"/><path class="cls-2" d="m307.25,173.89c-.96.46-3.24,1.42-6.44,1.42-6.31,0-10.51-4.61-10.51-11.19,0-6.99,4.75-11.7,11.28-11.7,2.7,0,4.93.78,5.76,1.37l-.78,1.78c-1.05-.64-2.74-1.28-5.16-1.28-5.89,0-8.91,4.48-8.91,9.64,0,5.76,3.61,9.5,8.68,9.5,2.6,0,4.3-.73,5.48-1.28l.6,1.73Z"/><path class="cls-2" d="m323.97,163.11c-4.79-.14-11.1.6-11.1,5.85,0,3.15,2.1,4.57,4.39,4.57,3.65,0,5.76-2.24,6.48-4.39.19-.46.23-.96.23-1.33v-4.71Zm2.19,6.53c0,1.74.05,3.52.32,5.21h-2.01l-.32-3.15h-.09c-1.1,1.69-3.52,3.66-7.03,3.66-4.43,0-6.44-3.11-6.44-6.03,0-5.07,4.43-8.13,13.38-8.04v-.59c0-2.15-.41-6.49-5.62-6.44-1.92,0-3.93.5-5.53,1.65l-.68-1.6c2.01-1.32,4.47-1.87,6.44-1.87,6.35,0,7.58,4.75,7.58,8.63v8.59Z"/><path class="cls-2" d="m358.56,161.6c0-.59-.05-1.37-.23-2.01-.73-2.92-3.33-5.35-6.9-5.35-4.8,0-7.81,4.16-7.81,9.82,0,4.93,2.47,9.46,7.68,9.46,3.15,0,6.12-2.1,7.04-5.71.18-.55.23-1.14.23-1.83v-4.39Zm2.19-19.23v27.41c0,1.6.05,3.52.19,5.07h-1.97l-.18-4.16h-.09c-1.14,2.42-3.75,4.66-7.81,4.66-5.44,0-9.45-4.52-9.45-11.05-.05-7.31,4.48-11.88,9.87-11.88,3.79,0,6.21,1.96,7.17,3.88h.09v-13.93h2.19Z"/><path class="cls-2" d="m382.41,161.92c.04-3.06-1.24-7.67-6.54-7.67-4.84,0-6.9,4.29-7.31,7.67h13.85Zm-13.98,1.74c0,6.99,3.84,9.78,8.36,9.78,3.2,0,4.84-.64,6.08-1.23l.55,1.69c-.82.46-3.06,1.42-6.9,1.42-6.3,0-10.23-4.57-10.23-11.01,0-7.31,4.2-11.88,9.86-11.88,7.18,0,8.54,6.76,8.54,9.91,0,.59,0,.91-.09,1.32h-16.17Z"/><rect class="cls-2" x="390.27" y="142.37" width="2.19" height="32.48"/><path class="cls-2" d="m410.01,174.85v-30.79h2.06l11.96,18.18c2.51,3.84,4.29,6.71,5.8,9.68l.09-.04c-.32-4.16-.37-7.67-.37-12.47v-15.35h2.1v30.79h-2.01l-11.74-17.91c-2.28-3.52-4.38-6.76-5.98-9.96l-.09.05c.23,3.79.28,7.13.28,12.24v15.58h-2.1Z"/><path class="cls-2" d="m447.47,173.53c4.57,0,8.18-4.11,8.18-9.73,0-4.02-2.24-9.55-8.04-9.55s-8.13,4.98-8.13,9.69c0,5.48,3.47,9.6,7.95,9.6h.05Zm-.14,1.83c-5.66,0-10.05-4.43-10.05-11.29,0-7.49,4.94-11.65,10.37-11.65,6.08,0,10.19,4.57,10.19,11.28,0,8.13-5.62,11.65-10.46,11.65h-.05Z"/><path class="cls-2" d="m463.37,159.5c0-2.19-.04-4.43-.18-6.58h2.01l.09,4.43h.14c.96-2.79,3.24-4.93,6.21-4.93.32,0,.64.05.91.09v2.06c-.32-.05-.64-.05-1.05-.05-3.01,0-5.16,2.6-5.76,6.12-.14.64-.18,1.37-.18,2.1v12.11h-2.2v-15.35Z"/><path class="cls-2" d="m481.1,148.08v4.84h6.26v1.78h-6.26v14.25c0,2.79.87,4.53,3.2,4.53,1.14,0,1.97-.14,2.51-.32l.28,1.64c-.73.27-1.74.5-3.06.5-1.6,0-2.92-.5-3.75-1.51-1.01-1.14-1.37-3.02-1.37-5.25v-13.84h-3.7v-1.78h3.7v-4.02l2.19-.82Z"/><path class="cls-2" d="m506.23,161.92c.04-3.06-1.24-7.67-6.54-7.67-4.84,0-6.9,4.29-7.31,7.67h13.85Zm-13.98,1.74c0,6.99,3.84,9.78,8.36,9.78,3.2,0,4.84-.64,6.08-1.23l.54,1.69c-.82.46-3.06,1.42-6.9,1.42-6.3,0-10.23-4.57-10.23-11.01,0-7.31,4.2-11.88,9.86-11.88,7.18,0,8.54,6.76,8.54,9.91,0,.59,0,.91-.09,1.32h-16.17Z"/></g><g><path class="cls-2" d="m586.77,126.79c-1.36.72-3.96,1.36-7.24,1.36-6.52,0-12.76-4.16-12.76-13.72,0-8,5.16-14.08,13.64-14.08,3.44,0,5.44.76,6.28,1.2l-.64,1.6c-1.36-.68-3.32-1.16-5.6-1.16-7.28,0-11.72,4.72-11.72,12.48,0,7.32,4.2,12.04,11.4,12.04,2.32,0,4.56-.48,6.08-1.24l.56,1.52Z"/><path class="cls-2" d="m591.34,117.96c0,6.16,3.36,8.56,7.32,8.56,2.8,0,4.24-.56,5.32-1.08l.48,1.52c-.72.4-2.68,1.2-6.04,1.2-5.52,0-8.96-4-8.96-9.64,0-6.4,3.68-10.4,8.64-10.4,6.28,0,7.48,5.92,7.48,8.68,0,.52,0,.84-.08,1.16h-14.16Zm12.24-1.52c.04-2.68-1.08-6.76-5.72-6.76-4.24,0-6.08,3.8-6.4,6.76h12.12Z"/><path class="cls-2" d="m610.45,113.16c0-1.76-.08-3.08-.16-4.6h1.76l.16,3.48h.08c1.04-2.16,3.44-3.92,6.6-3.92,1.84,0,6.68.92,6.68,8.12v11.52h-1.88v-11.36c0-3.48-1.36-6.64-5.32-6.64-2.72,0-5,1.92-5.76,4.4-.16.48-.28,1.12-.28,1.72v11.88h-1.88v-14.6Z"/><path class="cls-2" d="m634.53,103v5.56h5.48v1.52h-5.48v12.48c0,2.44.76,4,2.8,4,1,0,1.72-.16,2.2-.32l.24,1.48c-.64.24-1.52.44-2.68.44-1.4,0-2.56-.44-3.28-1.36-.88-1-1.2-2.6-1.2-4.56v-12.16h-3.24v-1.52h3.24v-4.96l1.92-.6Z"/><path class="cls-2" d="m644.25,114.32c0-1.92-.08-3.92-.16-5.76h1.76l.08,3.88h.08c.84-2.4,2.84-4.32,5.48-4.32.24,0,.52.04.76.08v1.84c-.28-.08-.56-.08-.92-.08-2.64,0-4.52,2.28-5.04,5.36-.08.56-.16,1.2-.16,1.84v10.6h-1.88v-13.44Z"/><path class="cls-2" d="m672.01,117.96c0,7.2-4.92,10.24-9.2,10.24-4.96,0-8.8-3.88-8.8-9.88,0-6.6,4.32-10.2,9.08-10.2,5.32,0,8.92,3.96,8.92,9.84Zm-16.08.24c0,4.8,3.08,8.4,7,8.4s7.16-3.6,7.16-8.52c0-3.52-2-8.4-7.04-8.4s-7.12,4.4-7.12,8.52Z"/><path class="cls-2" d="m700.93,99.36v23.92c0,1.44.08,3.12.16,4.48h-1.72l-.12-3.64h-.08c-1,2.12-3.28,4.08-6.84,4.08-4.72,0-8.28-3.96-8.28-9.68-.04-6.4,3.92-10.4,8.64-10.4,3.32,0,5.4,1.72,6.28,3.36h.08v-12.12h1.88Zm-1.88,16.8c0-.52-.08-1.24-.2-1.76-.68-2.56-2.92-4.72-6.04-4.72-4.2,0-6.84,3.64-6.84,8.64,0,4.32,2.16,8.28,6.72,8.28,2.76,0,5.32-1.8,6.16-5,.12-.52.2-1,.2-1.6v-3.84Z"/><path class="cls-2" d="m707.69,117.96c0,6.16,3.36,8.56,7.32,8.56,2.8,0,4.24-.56,5.32-1.08l.48,1.52c-.72.4-2.68,1.2-6.04,1.2-5.52,0-8.96-4-8.96-9.64,0-6.4,3.68-10.4,8.64-10.4,6.28,0,7.48,5.92,7.48,8.68,0,.52,0,.84-.08,1.16h-14.16Zm12.24-1.52c.04-2.68-1.08-6.76-5.72-6.76-4.24,0-6.08,3.8-6.4,6.76h12.12Z"/><path class="cls-2" d="m735.61,101.16c1.64-.36,3.96-.56,5.8-.56,3.52,0,5.72.76,7.28,2.24,1.16,1.12,1.88,2.92,1.88,4.8,0,3.64-2.16,5.96-5.28,7.04v.08c2.16.68,3.52,2.72,4.16,5.72.92,4.2,1.44,6.2,2,7.28h-2c-.4-.8-1-3.16-1.72-6.56-.8-3.88-2.48-5.64-6.04-5.8h-4.2v12.36h-1.88v-26.6Zm1.88,12.68h4.28c4.16,0,6.88-2.32,6.88-5.88,0-4.12-3.04-5.8-7.28-5.8-1.84,0-3.2.2-3.88.36v11.32Z"/><path class="cls-2" d="m756.25,117.96c0,6.16,3.36,8.56,7.32,8.56,2.8,0,4.24-.56,5.32-1.08l.48,1.52c-.72.4-2.68,1.2-6.04,1.2-5.52,0-8.96-4-8.96-9.64,0-6.4,3.68-10.4,8.64-10.4,6.28,0,7.48,5.92,7.48,8.68,0,.52,0,.84-.08,1.16h-14.16Zm12.24-1.52c.04-2.68-1.08-6.76-5.72-6.76-4.24,0-6.08,3.8-6.4,6.76h12.12Z"/><path class="cls-2" d="m788.61,126.91c-.84.44-2.84,1.24-5.6,1.24-5.56,0-9.24-4-9.24-9.8s4.16-10.24,9.92-10.24c2.36,0,4.28.68,5.04,1.2l-.68,1.56c-.96-.52-2.44-1.12-4.56-1.12-5.16,0-7.8,3.96-7.8,8.48,0,5,3.16,8.28,7.6,8.28,2.28,0,3.76-.64,4.8-1.08l.52,1.48Z"/><path class="cls-2" d="m807.97,123.08c0,1.68.08,3.2.16,4.68h-1.76l-.12-3.4h-.08c-.96,1.76-3.16,3.84-6.6,3.84-2.44,0-6.52-1.2-6.52-8.48v-11.16h1.88v10.8c0,4.16,1.32,7.16,5.12,7.16,2.8,0,4.84-1.96,5.64-3.88.2-.6.4-1.36.4-2.12v-11.96h1.88v14.52Z"/><path class="cls-2" d="m814.45,114.32c0-1.92-.08-3.92-.16-5.76h1.76l.08,3.88h.08c.84-2.4,2.84-4.32,5.48-4.32.24,0,.52.04.76.08v1.84c-.28-.08-.56-.08-.92-.08-2.64,0-4.52,2.28-5.04,5.36-.08.56-.16,1.2-.16,1.84v10.6h-1.88v-13.44Z"/><path class="cls-2" d="m825.45,125.24c1.04.64,2.6,1.32,4.32,1.32,3.04,0,4.48-1.64,4.48-3.64,0-2.12-1.28-3.24-4.04-4.36-3.16-1.2-4.88-2.92-4.88-5.24,0-2.76,2.16-5.2,5.92-5.2,1.76,0,3.24.52,4.24,1.2l-.76,1.56c-.64-.48-1.88-1.16-3.8-1.16-2.44,0-3.72,1.56-3.72,3.32,0,2,1.36,2.88,3.96,3.96,3.12,1.2,4.96,2.76,4.96,5.68,0,3.28-2.56,5.48-6.48,5.48-1.88,0-3.6-.52-4.88-1.32l.68-1.6Z"/><path class="cls-2" d="m857.57,117.96c0,7.2-4.92,10.24-9.2,10.24-4.96,0-8.8-3.88-8.8-9.88,0-6.6,4.32-10.2,9.08-10.2,5.32,0,8.92,3.96,8.92,9.84Zm-16.08.24c0,4.8,3.08,8.4,7,8.4s7.16-3.6,7.16-8.52c0-3.52-2-8.4-7.04-8.4s-7.12,4.4-7.12,8.52Z"/><path class="cls-2" d="m861.65,125.24c1.04.64,2.6,1.32,4.32,1.32,3.04,0,4.48-1.64,4.48-3.64,0-2.12-1.28-3.24-4.04-4.36-3.16-1.2-4.88-2.92-4.88-5.24,0-2.76,2.16-5.2,5.92-5.2,1.76,0,3.24.52,4.24,1.2l-.76,1.56c-.64-.48-1.88-1.16-3.8-1.16-2.44,0-3.72,1.56-3.72,3.32,0,2,1.36,2.88,3.96,3.96,3.12,1.2,4.96,2.76,4.96,5.68,0,3.28-2.56,5.48-6.48,5.48-1.88,0-3.6-.52-4.88-1.32l.68-1.6Z"/><path class="cls-2" d="m901.41,99.36v23.92c0,1.44.08,3.12.16,4.48h-1.72l-.12-3.64h-.08c-1,2.12-3.28,4.08-6.84,4.08-4.72,0-8.28-3.96-8.28-9.68-.04-6.4,3.92-10.4,8.64-10.4,3.32,0,5.4,1.72,6.28,3.36h.08v-12.12h1.88Zm-1.88,16.8c0-.52-.08-1.24-.2-1.76-.68-2.56-2.92-4.72-6.04-4.72-4.2,0-6.84,3.64-6.84,8.64,0,4.32,2.16,8.28,6.72,8.28,2.76,0,5.32-1.8,6.16-5,.12-.52.2-1,.2-1.6v-3.84Z"/><path class="cls-2" d="m908.17,117.96c0,6.16,3.36,8.56,7.32,8.56,2.8,0,4.24-.56,5.32-1.08l.48,1.52c-.72.4-2.68,1.2-6.04,1.2-5.52,0-8.96-4-8.96-9.64,0-6.4,3.68-10.4,8.64-10.4,6.28,0,7.48,5.92,7.48,8.68,0,.52,0,.84-.08,1.16h-14.16Zm12.24-1.52c.04-2.68-1.08-6.76-5.72-6.76-4.24,0-6.08,3.8-6.4,6.76h12.12Z"/><path class="cls-2" d="m939.29,118.32l-3.32,9.44h-1.96l9.76-26.96h1.84l9.72,26.96h-1.96l-3.4-9.44h-10.68Zm10.08-1.6l-3.28-9c-.64-1.88-1-3.24-1.4-4.76h-.08c-.4,1.56-.84,2.96-1.4,4.68l-3.32,9.08h9.48Z"/><path class="cls-2" d="m959.45,114.68c0-2.4-.08-4.32-.16-6.12h1.8l.16,3.64h.08c1.36-2.56,3.72-4.08,7.08-4.08,4.92,0,8.24,4.08,8.24,9.72,0,6.88-4.08,10.36-8.72,10.36-2.76,0-5.2-1.24-6.52-3.56h-.08v11.04h-1.88v-21Zm1.88,5.52c0,.52.08,1.04.16,1.52.8,2.96,3.36,4.88,6.32,4.88,4.4,0,6.92-3.56,6.92-8.68,0-4.32-2.4-8.24-6.76-8.24-2.8,0-5.52,1.96-6.36,5.12-.12.52-.28,1.12-.28,1.64v3.76Z"/><path class="cls-2" d="m981.53,114.32c0-1.92-.08-3.92-.16-5.76h1.76l.08,3.88h.08c.84-2.4,2.84-4.32,5.48-4.32.24,0,.52.04.76.08v1.84c-.28-.08-.56-.08-.92-.08-2.64,0-4.52,2.28-5.04,5.36-.08.56-.16,1.2-.16,1.84v10.6h-1.88v-13.44Z"/><path class="cls-2" d="m993.17,117.96c0,6.16,3.36,8.56,7.32,8.56,2.8,0,4.24-.56,5.32-1.08l.48,1.52c-.72.4-2.68,1.2-6.04,1.2-5.52,0-8.96-4-8.96-9.64,0-6.4,3.68-10.4,8.64-10.4,6.28,0,7.48,5.92,7.48,8.68,0,.52,0,.84-.08,1.16h-14.16Zm12.24-1.52c.04-2.68-1.08-6.76-5.72-6.76-4.24,0-6.08,3.8-6.4,6.76h12.12Z"/><path class="cls-2" d="m1012.29,113.16c0-1.76-.08-3.08-.16-4.6h1.76l.16,3.48h.08c1.04-2.16,3.44-3.92,6.6-3.92,1.84,0,6.68.92,6.68,8.12v11.52h-1.88v-11.36c0-3.48-1.36-6.64-5.32-6.64-2.72,0-5,1.92-5.76,4.4-.16.48-.28,1.12-.28,1.72v11.88h-1.88v-14.6Z"/><path class="cls-2" d="m1049.01,99.36v23.92c0,1.44.08,3.12.16,4.48h-1.72l-.12-3.64h-.08c-1,2.12-3.28,4.08-6.84,4.08-4.72,0-8.28-3.96-8.28-9.68-.04-6.4,3.92-10.4,8.64-10.4,3.32,0,5.4,1.72,6.28,3.36h.08v-12.12h1.88Zm-1.88,16.8c0-.52-.08-1.24-.2-1.76-.68-2.56-2.92-4.72-6.04-4.72-4.2,0-6.84,3.64-6.84,8.64,0,4.32,2.16,8.28,6.72,8.28,2.76,0,5.32-1.8,6.16-5,.12-.52.2-1,.2-1.6v-3.84Z"/><path class="cls-2" d="m1057.97,103.08c0,.88-.6,1.64-1.6,1.64-.88,0-1.48-.76-1.48-1.64s.68-1.68,1.56-1.68,1.52.76,1.52,1.68Zm-2.48,24.68v-19.2h1.88v19.2h-1.88Z"/><path class="cls-2" d="m1061.25,126.59l10.32-13.64c.72-.92,1.44-1.8,2.2-2.76v-.08h-11.68v-1.56h14l-.04,1.28-10.32,13.6c-.68.92-1.36,1.76-2.04,2.68v.08h12.44v1.56h-14.88v-1.16Z"/><path class="cls-2" d="m1090.45,127.75l-.28-2.76h-.12c-.92,1.48-3.04,3.2-6.12,3.2-3.84,0-5.64-2.72-5.64-5.28,0-4.44,3.92-7.12,11.72-7.04v-.48c0-1.92-.36-5.72-4.92-5.68-1.68,0-3.44.44-4.8,1.44l-.6-1.4c1.72-1.16,3.88-1.64,5.6-1.64,5.56,0,6.6,4.16,6.6,7.6v7.48c0,1.52.08,3.08.28,4.56h-1.72Zm-.44-10.28c-4.2-.12-9.72.52-9.72,5.12,0,2.76,1.84,4,3.84,4,3.2,0,5-1.96,5.68-3.84.12-.4.2-.8.2-1.16v-4.12Z"/><path class="cls-2" d="m1092.93,134.55c1.68-.08,3.12-.6,4-1.6,1-1.2,1.44-2.72,1.44-7.8v-16.6h1.88v17.88c0,3.44-.36,5.8-2.04,7.6-1.36,1.52-3.76,2.04-5.04,2.08l-.24-1.56Zm7.92-31.47c0,.84-.56,1.64-1.6,1.64-.88,0-1.48-.8-1.48-1.64s.68-1.68,1.6-1.68,1.48.8,1.48,1.68Z"/><path class="cls-2" d="m1106.97,117.96c0,6.16,3.36,8.56,7.32,8.56,2.8,0,4.24-.56,5.32-1.08l.48,1.52c-.72.4-2.68,1.2-6.04,1.2-5.52,0-8.96-4-8.96-9.64,0-6.4,3.68-10.4,8.64-10.4,6.28,0,7.48,5.92,7.48,8.68,0,.52,0,.84-.08,1.16h-14.16Zm12.24-1.52c.04-2.68-1.08-6.76-5.72-6.76-4.24,0-6.08,3.8-6.4,6.76h12.12Z"/><path class="cls-2" d="m567.74,156.56l5.04,12.56c.52,1.36,1.04,2.88,1.4,4.12h.08c.4-1.2.88-2.68,1.48-4.24l4.68-12.44h2.04l-5.76,14.32c-2.32,5.96-3.96,9.52-6.48,11.72-1.52,1.28-2.88,1.84-3.36,2l-.6-1.6c.96-.36,2.24-1.04,3.36-2.16.96-.92,2.24-2.52,3.2-4.8.16-.44.24-.64.24-.84s-.08-.44-.24-.84l-7.12-17.8h2.04Z"/><path class="cls-2" d="m598.09,166.32l-3.32,9.44h-1.96l9.76-26.96h1.84l9.72,26.96h-1.96l-3.4-9.44h-10.68Zm10.08-1.6l-3.28-9c-.64-1.88-1-3.24-1.4-4.76h-.08c-.4,1.56-.84,2.96-1.4,4.68l-3.32,9.08h9.48Z"/><path class="cls-2" d="m631.09,174.91c-.84.44-2.84,1.24-5.6,1.24-5.56,0-9.24-4-9.24-9.8s4.16-10.24,9.92-10.24c2.36,0,4.28.68,5.04,1.2l-.68,1.56c-.96-.52-2.44-1.12-4.56-1.12-5.16,0-7.8,3.96-7.8,8.48,0,5,3.16,8.28,7.6,8.28,2.28,0,3.76-.64,4.8-1.08l.52,1.48Z"/><path class="cls-2" d="m652.09,165.96c0,7.2-4.92,10.24-9.2,10.24-4.96,0-8.8-3.88-8.8-9.88,0-6.6,4.32-10.2,9.08-10.2,5.32,0,8.92,3.96,8.92,9.84Zm-16.08.24c0,4.8,3.08,8.4,7,8.4s7.16-3.6,7.16-8.52c0-3.52-2-8.4-7.04-8.4s-7.12,4.4-7.12,8.52Z"/><path class="cls-2" d="m656.97,161.16c0-1.76-.08-3.08-.16-4.6h1.76l.16,3.4h.08c1.2-2.2,3.04-3.84,6.2-3.84,2.68,0,4.72,1.76,5.52,4.2h.08c.56-1.16,1.24-2,1.96-2.6,1.24-1.04,2.56-1.6,4.6-1.6,1.88,0,6.24,1.04,6.24,8.32v11.32h-1.88v-11.12c0-4.32-1.68-6.88-5-6.88-2.4,0-4.32,1.76-5.04,3.8-.2.56-.36,1.2-.36,1.88v12.32h-1.88v-12c0-3.48-1.68-6-4.76-6-2.6,0-4.6,2.08-5.32,4.32-.2.52-.32,1.2-.32,1.84v11.84h-1.88v-14.6Z"/><path class="cls-2" d="m689.73,162.68c0-2.4-.08-4.32-.16-6.12h1.8l.16,3.64h.08c1.36-2.56,3.72-4.08,7.08-4.08,4.92,0,8.24,4.08,8.24,9.72,0,6.88-4.08,10.36-8.72,10.36-2.76,0-5.2-1.24-6.52-3.56h-.08v11.04h-1.88v-21Zm1.88,5.52c0,.52.08,1.04.16,1.52.8,2.96,3.36,4.88,6.32,4.88,4.4,0,6.92-3.56,6.92-8.68,0-4.32-2.4-8.24-6.76-8.24-2.8,0-5.52,1.96-6.36,5.12-.12.52-.28,1.12-.28,1.64v3.76Z"/><path class="cls-2" d="m722.29,175.75l-.28-2.76h-.12c-.92,1.48-3.04,3.2-6.12,3.2-3.84,0-5.64-2.72-5.64-5.28,0-4.44,3.92-7.12,11.72-7.04v-.48c0-1.92-.36-5.72-4.92-5.68-1.68,0-3.44.44-4.8,1.44l-.6-1.4c1.72-1.16,3.88-1.64,5.6-1.64,5.56,0,6.6,4.16,6.6,7.6v7.48c0,1.52.08,3.08.28,4.56h-1.72Zm-.44-10.28c-4.2-.12-9.72.52-9.72,5.12,0,2.76,1.84,4,3.84,4,3.2,0,5-1.96,5.68-3.84.12-.4.2-.8.2-1.16v-4.12Z"/><path class="cls-2" d="m729.97,161.16c0-1.76-.08-3.08-.16-4.6h1.76l.16,3.48h.08c1.04-2.16,3.44-3.92,6.6-3.92,1.84,0,6.68.92,6.68,8.12v11.52h-1.88v-11.36c0-3.48-1.36-6.64-5.32-6.64-2.72,0-5,1.92-5.76,4.4-.16.48-.28,1.12-.28,1.72v11.88h-1.88v-14.6Zm3.04-8.32c-.04-2.12.88-3.48,2.4-3.48.76,0,1.36.36,2.4.92.64.32,1.16.6,1.68.6.6,0,1.04-.36,1.12-1.64h1.32c0,2.04-.68,3.36-2.4,3.36-.72,0-1.44-.36-2.24-.8-.88-.48-1.36-.76-1.84-.76-.68,0-1,.76-1.12,1.8h-1.32Z"/><path class="cls-2" d="m761.89,175.75l-.28-2.76h-.12c-.92,1.48-3.04,3.2-6.12,3.2-3.84,0-5.64-2.72-5.64-5.28,0-4.44,3.92-7.12,11.72-7.04v-.48c0-1.92-.36-5.72-4.92-5.68-1.68,0-3.44.44-4.8,1.44l-.6-1.4c1.72-1.16,3.88-1.64,5.6-1.64,5.56,0,6.6,4.16,6.6,7.6v7.48c0,1.52.08,3.08.28,4.56h-1.72Zm-.44-10.28c-4.2-.12-9.72.52-9.72,5.12,0,2.76,1.84,4,3.84,4,3.2,0,5-1.96,5.68-3.84.12-.4.2-.8.2-1.16v-4.12Z"/><path class="cls-2" d="m769.57,161.16c0-1.76-.08-3.08-.16-4.6h1.76l.16,3.4h.08c1.2-2.2,3.04-3.84,6.2-3.84,2.68,0,4.72,1.76,5.52,4.2h.08c.56-1.16,1.24-2,1.96-2.6,1.24-1.04,2.56-1.6,4.6-1.6,1.88,0,6.24,1.04,6.24,8.32v11.32h-1.88v-11.12c0-4.32-1.68-6.88-5-6.88-2.4,0-4.32,1.76-5.04,3.8-.2.56-.36,1.2-.36,1.88v12.32h-1.88v-12c0-3.48-1.68-6-4.76-6-2.6,0-4.6,2.08-5.32,4.32-.2.52-.32,1.2-.32,1.84v11.84h-1.88v-14.6Z"/><path class="cls-2" d="m804.81,151.08c0,.88-.6,1.64-1.6,1.64-.88,0-1.48-.76-1.48-1.64s.68-1.68,1.56-1.68,1.52.76,1.52,1.68Zm-2.48,24.68v-19.2h1.88v19.2h-1.88Z"/><path class="cls-2" d="m810.97,165.96c0,6.16,3.36,8.56,7.32,8.56,2.8,0,4.24-.56,5.32-1.08l.48,1.52c-.72.4-2.68,1.2-6.04,1.2-5.52,0-8.96-4-8.96-9.64,0-6.4,3.68-10.4,8.64-10.4,6.28,0,7.48,5.92,7.48,8.68,0,.52,0,.84-.08,1.16h-14.16Zm12.24-1.52c.04-2.68-1.08-6.76-5.72-6.76-4.24,0-6.08,3.8-6.4,6.76h12.12Z"/><path class="cls-2" d="m830.09,161.16c0-1.76-.08-3.08-.16-4.6h1.76l.16,3.48h.08c1.04-2.16,3.44-3.92,6.6-3.92,1.84,0,6.68.92,6.68,8.12v11.52h-1.88v-11.36c0-3.48-1.36-6.64-5.32-6.64-2.72,0-5,1.92-5.76,4.4-.16.48-.28,1.12-.28,1.72v11.88h-1.88v-14.6Z"/><path class="cls-2" d="m854.17,151v5.56h5.48v1.52h-5.48v12.48c0,2.44.76,4,2.8,4,1,0,1.72-.16,2.2-.32l.24,1.48c-.64.24-1.52.44-2.68.44-1.4,0-2.56-.44-3.28-1.36-.88-1-1.2-2.6-1.2-4.56v-12.16h-3.24v-1.52h3.24v-4.96l1.92-.6Z"/><path class="cls-2" d="m880.05,165.96c0,7.2-4.92,10.24-9.2,10.24-4.96,0-8.8-3.88-8.8-9.88,0-6.6,4.32-10.2,9.08-10.2,5.32,0,8.92,3.96,8.92,9.84Zm-16.08.24c0,4.8,3.08,8.4,7,8.4s7.16-3.6,7.16-8.52c0-3.52-2-8.4-7.04-8.4s-7.12,4.4-7.12,8.52Z"/><path class="cls-2" d="m893.73,149.12c1.56-.32,3.48-.52,5.76-.52,3.2,0,5.64.8,7.12,2.28,1.28,1.24,2.08,3,2.08,5.28s-.68,4.04-1.88,5.36c-1.72,2-4.64,3.04-7.92,3.04-1.2,0-2.32-.04-3.28-.32v11.52h-1.88v-26.64Zm1.88,13.44c.96.28,2.12.4,3.44.4,4.8,0,7.72-2.36,7.72-6.64s-3.08-6.12-7.36-6.12c-1.76,0-3.08.16-3.8.32v12.04Z"/><path class="cls-2" d="m913.01,165.96c0,6.16,3.36,8.56,7.32,8.56,2.8,0,4.24-.56,5.32-1.08l.48,1.52c-.72.4-2.68,1.2-6.04,1.2-5.52,0-8.96-4-8.96-9.64,0-6.4,3.68-10.4,8.64-10.4,6.28,0,7.48,5.92,7.48,8.68,0,.52,0,.84-.08,1.16h-14.16Zm12.24-1.52c.04-2.68-1.08-6.76-5.72-6.76-4.24,0-6.08,3.8-6.4,6.76h12.12Z"/><path class="cls-2" d="m947.41,147.36v23.92c0,1.44.08,3.12.16,4.48h-1.72l-.12-3.64h-.08c-1,2.12-3.28,4.08-6.84,4.08-4.72,0-8.28-3.96-8.28-9.68-.04-6.4,3.92-10.4,8.64-10.4,3.32,0,5.4,1.72,6.28,3.36h.08v-12.12h1.88Zm-1.88,16.8c0-.52-.08-1.24-.2-1.76-.68-2.56-2.92-4.72-6.04-4.72-4.2,0-6.84,3.64-6.84,8.64,0,4.32,2.16,8.28,6.72,8.28,2.76,0,5.32-1.8,6.16-5,.12-.52.2-1,.2-1.6v-3.84Z"/><path class="cls-2" d="m964.37,175.75l-.28-2.76h-.12c-.92,1.48-3.04,3.2-6.12,3.2-3.84,0-5.64-2.72-5.64-5.28,0-4.44,3.92-7.12,11.72-7.04v-.48c0-1.92-.36-5.72-4.92-5.68-1.68,0-3.44.44-4.8,1.44l-.6-1.4c1.72-1.16,3.88-1.64,5.6-1.64,5.56,0,6.6,4.16,6.6,7.6v7.48c0,1.52.08,3.08.28,4.56h-1.72Zm-.44-10.28c-4.2-.12-9.72.52-9.72,5.12,0,2.76,1.84,4,3.84,4,3.2,0,5-1.96,5.68-3.84.12-.4.2-.8.2-1.16v-4.12Z"/><path class="cls-2" d="m987.49,156.56c-.08,1.44-.16,2.96-.16,4.96v11.44c0,4.92-1,7.36-2.6,8.88-1.76,1.68-4.36,2.28-6.52,2.28s-4.64-.56-6.08-1.64l.68-1.56c1.32.88,3.2,1.6,5.68,1.6,4.04,0,6.96-2.08,6.96-7.76v-2.72h-.08c-1,1.96-3.24,3.72-6.68,3.72-4.84,0-8.24-4.2-8.24-9.44,0-6.68,4.4-10.2,8.64-10.2,3.8,0,5.68,2.08,6.48,3.68h.08l.08-3.24h1.76Zm-2.04,7.36c0-.68-.08-1.28-.24-1.84-.8-2.32-2.84-4.4-5.96-4.4-4.08,0-6.88,3.36-6.88,8.44,0,4.32,2.28,8.04,6.8,8.04,2.56,0,4.96-1.56,5.92-4.32.24-.64.36-1.36.36-2.04v-3.88Z"/><path class="cls-2" d="m1010.21,165.96c0,7.2-4.92,10.24-9.2,10.24-4.96,0-8.8-3.88-8.8-9.88,0-6.6,4.32-10.2,9.08-10.2,5.32,0,8.92,3.96,8.92,9.84Zm-16.08.24c0,4.8,3.08,8.4,7,8.4s7.16-3.6,7.16-8.52c0-3.52-2-8.4-7.04-8.4s-7.12,4.4-7.12,8.52Zm11.64-17.96l-4.88,5.52h-1.48l3.56-5.52h2.8Z"/><path class="cls-2" d="m1030.53,156.56c-.08,1.44-.16,2.96-.16,4.96v11.44c0,4.92-1,7.36-2.6,8.88-1.76,1.68-4.36,2.28-6.52,2.28s-4.64-.56-6.08-1.64l.68-1.56c1.32.88,3.2,1.6,5.68,1.6,4.04,0,6.96-2.08,6.96-7.76v-2.72h-.08c-1,1.96-3.24,3.72-6.68,3.72-4.84,0-8.24-4.2-8.24-9.44,0-6.68,4.4-10.2,8.64-10.2,3.8,0,5.68,2.08,6.48,3.68h.08l.08-3.24h1.76Zm-2.04,7.36c0-.68-.08-1.28-.24-1.84-.8-2.32-2.84-4.4-5.96-4.4-4.08,0-6.88,3.36-6.88,8.44,0,4.32,2.28,8.04,6.8,8.04,2.56,0,4.96-1.56,5.92-4.32.24-.64.36-1.36.36-2.04v-3.88Z"/><path class="cls-2" d="m1039.01,151.08c0,.88-.6,1.64-1.6,1.64-.88,0-1.48-.76-1.48-1.64s.68-1.68,1.56-1.68,1.52.76,1.52,1.68Zm-2.48,24.68v-19.2h1.88v19.2h-1.88Z"/><path class="cls-2" d="m1058.13,174.91c-.84.44-2.84,1.24-5.6,1.24-5.56,0-9.24-4-9.24-9.8s4.16-10.24,9.92-10.24c2.36,0,4.28.68,5.04,1.2l-.68,1.56c-.96-.52-2.44-1.12-4.56-1.12-5.16,0-7.8,3.96-7.8,8.48,0,5,3.16,8.28,7.6,8.28,2.28,0,3.76-.64,4.8-1.08l.52,1.48Z"/><path class="cls-2" d="m1079.13,165.96c0,7.2-4.92,10.24-9.2,10.24-4.96,0-8.8-3.88-8.8-9.88,0-6.6,4.32-10.2,9.08-10.2,5.32,0,8.92,3.96,8.92,9.84Zm-16.08.24c0,4.8,3.08,8.4,7,8.4s7.16-3.6,7.16-8.52c0-3.52-2-8.4-7.04-8.4s-7.12,4.4-7.12,8.52Z"/></g></g></svg>