<svg xmlns="http://www.w3.org/2000/svg" xmlns:xlink="http://www.w3.org/1999/xlink" id="Capa_1" x="0px" y="0px" viewBox="0 0 796.8 189.7" xml:space="preserve"><g>	<path fill="#FFFFFF" d="M11.2,121.9l7.2-2.1c2.4-0.7,3.2-2,2.8-3.5c-0.5-1.6-1.9-2.3-4.3-1.6l-7.1,2.1l-0.7-2.2l7-2.1  c3.8-1.1,6,0.3,6.9,3.3c0.8,2.8-0.2,5.1-4.1,6.3l-7,2L11.2,121.9z"/>	<path fill="#FFFFFF" d="M75.1,23.4c-0.5,0.4-1.5,1.1-3,1.6c-3.9,1.2-7-0.4-8.2-4.1c-1.3-4,0.7-7.3,4.4-8.5c1.5-0.5,2.6-0.5,3.1-0.4  l0.1,1.9c-0.7-0.1-1.5,0-2.5,0.3c-2.5,0.8-3.8,2.9-2.8,5.8c0.9,2.7,3,3.9,5.7,3c0.9-0.3,1.8-0.8,2.3-1.2L75.1,23.4z"/>	<path fill="#FFFFFF" d="M78.8,19.4l-0.5,3.8l-2.4,0.4l2-13.3l2.9-0.5L87,21.7l-2.5,0.4l-1.7-3.4L78.8,19.4z M82.1,17l-1.5-2.9  c-0.4-0.7-0.7-1.6-1-2.2h0c-0.1,0.8-0.1,1.7-0.2,2.5l-0.5,3.3L82.1,17z"/>	<polygon fill="#FFFFFF" points="88.9,10.9 85.2,11 85.2,9.1 94.8,8.7 94.9,10.7 91.2,10.8 91.6,21.6 89.3,21.7  "/>	<path fill="#FFFFFF" d="M107.8,16.2c-0.5,4.3-3.3,6.4-6.8,6c-3.6-0.4-5.6-3.4-5.2-7.1c0.4-3.9,3.2-6.4,6.8-6  C106.3,9.5,108.2,12.6,107.8,16.2 M98.3,15.4c-0.3,2.6,0.8,4.8,3,5c2.2,0.2,3.7-1.7,4-4.4c0.3-2.4-0.7-4.8-3-5  C100.1,10.8,98.6,12.7,98.3,15.4"/>	<polygon fill="#FFFFFF" points="111.9,10.8 114.1,11.4 111.4,21.9 116.4,23.3 115.9,25.1 108.6,23.2  "/>	<polygon fill="#FFFFFF" points="123.7,14.4 119.4,26.5 117.2,25.7 121.5,13.6  "/>	<path fill="#FFFFFF" d="M130.1,31c-0.6,0-1.8-0.3-3.2-1c-3.7-1.8-4.8-5.2-3-8.7c1.8-3.8,5.6-4.8,9.1-3.1c1.4,0.7,2.2,1.4,2.5,1.9  l-1.2,1.4c-0.4-0.5-1.1-1.1-2-1.5c-2.3-1.1-4.7-0.5-6.1,2.3c-1.2,2.5-0.6,4.9,2,6.1c0.8,0.4,1.8,0.7,2.5,0.7L130.1,31z"/>	<path fill="#FFFFFF" d="M135.5,30.7l-3,2.3l-2-1.4l10.7-8.1l2.4,1.7l-3.9,12.9l-2.1-1.4l1.1-3.6L135.5,30.7z M139.5,31.3l1-3.2  c0.2-0.8,0.6-1.6,0.8-2.3l0,0c-0.6,0.5-1.2,1.1-1.9,1.6l-2.6,2L139.5,31.3z"/>	<path fill="#FFFFFF" d="M70.8,179.3c-0.6,0.1-1.9,0-3.4-0.5c-4-1.3-5.6-4.6-4.3-8.4c1.4-4.2,5.1-5.7,8.9-4.4  c1.5,0.5,2.5,1.2,2.8,1.5l-1.1,1.7c-0.5-0.5-1.3-1-2.3-1.3c-2.5-0.8-4.9,0.2-5.9,3.2c-0.9,2.8,0.1,5.1,2.9,6  c0.9,0.3,1.9,0.4,2.6,0.4L70.8,179.3z"/>	<polygon fill="#FFFFFF" points="80.9,168.3 80.2,173.5 85.7,174.2 86.4,169 88.8,169.3 87.1,182.4 84.7,182.1 85.5,176.3   79.9,175.6 79.2,181.4 76.8,181 78.5,168  "/>	<polygon fill="#FFFFFF" points="95.8,169.2 96.1,182.4 93.7,182.5 93.4,169.3  "/>	<polygon fill="#FFFFFF" points="100.5,169 102.9,168.6 104.5,179.7 109.9,178.9 110.2,180.9 102.4,182.1  "/>	<polygon fill="#FFFFFF" points="121,171.8 116.3,173.3 117.4,177 122.7,175.3 123.3,177.2 115.7,179.6 111.8,167 119.1,164.7   119.7,166.6 114.7,168.1 115.7,171.4 120.4,169.9  "/>	<path fill="#FFFFFF" d="M237.6,27.8v32.5c0,13.7,6.4,19,14.3,19c8.9,0,15.1-5.7,15.1-19V27.8h3.8v32.2c0,16.5-8.9,22.5-19.1,22.5  c-9.4,0-18-5.4-18-21.9V27.8H237.6z"/>	<path fill="#FFFFFF" d="M283.7,52.4c0-3.5-0.1-6.1-0.3-9.2h3.6l0.2,6.9h0.2c2.1-4.3,6.9-7.7,13.2-7.7c3.7,0,13.4,1.8,13.4,16.2v23  h-3.8V58.9c0-7-2.7-13.3-10.6-13.3c-5.3,0-10,3.8-11.5,8.9c-0.2,0.9-0.5,2.2-0.5,3.4v23.8h-3.8V52.4z"/>	<path fill="#FFFFFF" d="M328.2,35.6c-1.8,0-3-1.5-3-3.3c0-1.8,1.4-3.3,3.1-3.3c1.8,0,3,1.5,3,3.3C331.4,34.1,330.2,35.6,328.2,35.6  L328.2,35.6z M326.5,43.2h3.8v38.3h-3.8V43.2z"/>	<path fill="#FFFFFF" d="M341.9,43.2l8.9,23.8c1.5,3.8,2.7,6.9,3.7,10.2h0.2c1-3.2,2.5-6.5,3.9-10.2l9.1-23.8h4l-15.6,38.3h-3.4  l-15-38.3H341.9z"/>	<path fill="#FFFFFF" d="M379.2,62c0,12.2,6.7,17.1,14.6,17.1c5.6,0,8.5-1.1,10.6-2.2l1,3c-1.4,0.8-5.4,2.5-12,2.5  c-11,0-17.9-8-17.9-19.2c0-12.8,7.3-20.7,17.2-20.7c12.5,0,14.9,11.8,14.9,17.3c0,1,0,1.6-0.2,2.3H379.2z M403.6,59  c0.1-5.3-2.2-13.4-11.4-13.4c-8.5,0-12.1,7.5-12.8,13.4H403.6z"/>	<path fill="#FFFFFF" d="M417.3,54.7c0-3.8-0.1-7.7-0.3-11.5h3.5l0.2,7.7h0.3c1.7-4.9,5.7-8.6,10.8-8.6c0.6,0,1.1,0.1,1.6,0.2v3.6  c-0.6-0.1-1.1-0.1-1.8-0.1c-5.3,0-9,4.5-10,10.7c-0.2,1.1-0.3,2.4-0.3,3.7v21.1h-3.8V54.7z"/>	<path fill="#FFFFFF" d="M439.3,76.5c2.1,1.3,5.2,2.6,8.6,2.6c6.1,0,8.9-3.3,8.9-7.3c0-4.2-2.5-6.5-8.1-8.7  c-6.3-2.4-9.7-5.8-9.7-10.5c0-5.6,4.4-10.4,11.8-10.4c3.5,0,6.5,1,8.5,2.4l-1.4,3.1c-1.4-1-3.8-2.3-7.7-2.3c-4.9,0-7.4,3.1-7.4,6.6  c0,4,2.7,5.7,7.9,7.8c6.2,2.5,9.9,5.6,9.9,11.4c0,6.5-5.1,10.9-12.9,10.9c-3.7,0-7.2-1-9.7-2.6L439.3,76.5z"/>	<path fill="#FFFFFF" d="M472.4,35.6c-1.8,0-3-1.5-3-3.3c0-1.8,1.4-3.3,3.1-3.3c1.8,0,3,1.5,3,3.3C475.6,34.1,474.4,35.6,472.4,35.6  L472.4,35.6z M470.7,43.2h3.8v38.3h-3.8V43.2z"/>	<path fill="#FFFFFF" d="M517.9,24.8v47.9c0,2.8,0.1,6.1,0.3,8.9h-3.4l-0.3-7.3h-0.2c-2,4.2-6.5,8.1-13.6,8.1  c-9.5,0-16.5-7.9-16.5-19.3c-0.1-12.8,7.8-20.7,17.2-20.7c6.6,0,10.9,3.4,12.5,6.8h0.2V24.8H517.9z M514.1,58.4  c0-1-0.1-2.4-0.4-3.5c-1.3-5.1-5.8-9.3-12-9.3c-8.4,0-13.6,7.3-13.6,17.2c0,8.6,4.3,16.5,13.4,16.5c5.5,0,10.7-3.7,12.3-10  c0.3-1,0.4-2,0.4-3.2V58.4z"/>	<path fill="#FFFFFF" d="M554.6,72.4c0,3,0.1,6.1,0.6,9.1h-3.5l-0.6-5.5h-0.2c-1.9,3-6.1,6.4-12.3,6.4c-7.7,0-11.3-5.4-11.3-10.5  c0-8.9,7.7-14.2,23.4-14v-1c0-3.8-0.7-11.3-9.8-11.3c-3.4,0-6.9,0.9-9.7,2.9l-1.2-2.8c3.5-2.3,7.8-3.3,11.3-3.3  c11.1,0,13.2,8.3,13.2,15.1V72.4z M550.8,61c-8.4-0.2-19.4,1-19.4,10.2c0,5.5,3.7,8,7.7,8c6.4,0,10.1-3.9,11.3-7.7  c0.3-0.8,0.4-1.7,0.4-2.3V61z"/>	<path fill="#FFFFFF" d="M597.5,24.8v47.9c0,2.8,0.1,6.1,0.3,8.9h-3.4l-0.3-7.3H594c-2,4.2-6.5,8.1-13.6,8.1  c-9.5,0-16.5-7.9-16.5-19.3c-0.1-12.8,7.8-20.7,17.2-20.7c6.6,0,10.9,3.4,12.5,6.8h0.2V24.8H597.5z M593.7,58.4  c0-1-0.1-2.4-0.4-3.5c-1.3-5.1-5.8-9.3-12-9.3c-8.4,0-13.6,7.3-13.6,17.2c0,8.6,4.3,16.5,13.4,16.5c5.5,0,10.7-3.7,12.3-10  c0.3-1,0.4-2,0.4-3.2V58.4z"/>	<path fill="#FFFFFF" d="M273.7,159.4c-2.7,1.4-7.9,2.7-14.5,2.7c-13,0-25.5-8.3-25.5-27.4c0-16,10.3-28,27.3-28  c6.9,0,10.9,1.5,12.4,2.3l-1.2,3.2c-2.7-1.4-6.6-2.3-11.2-2.3c-14.5,0-23.4,9.4-23.4,24.9c0,14.6,8.3,24,22.7,24  c4.5,0,9-1,12.1-2.5L273.7,159.4z"/>	<path fill="#FFFFFF" d="M306.3,152.2c0,3,0.1,6.1,0.6,9.1h-3.5l-0.6-5.5h-0.2c-1.9,3-6.1,6.4-12.3,6.4c-7.7,0-11.3-5.4-11.3-10.5  c0-8.9,7.7-14.2,23.4-14v-1c0-3.8-0.7-11.3-9.8-11.3c-3.3,0-6.9,0.9-9.7,2.9l-1.2-2.8c3.5-2.3,7.8-3.3,11.3-3.3  c11.1,0,13.2,8.3,13.2,15.1V152.2z M302.4,140.8c-8.4-0.2-19.4,1-19.4,10.2c0,5.5,3.7,8,7.7,8c6.4,0,10.1-3.9,11.3-7.7  c0.3-0.8,0.4-1.7,0.4-2.3V140.8z"/>	<path fill="#FFFFFF" d="M323.9,114.6v8.5h10.9v3.1h-10.9V151c0,4.9,1.5,7.9,5.6,7.9c2,0,3.4-0.2,4.4-0.6l0.5,2.9  c-1.3,0.5-3,0.9-5.3,0.9c-2.8,0-5.1-0.9-6.5-2.6c-1.8-2-2.4-5.3-2.4-9.2v-24.2h-6.5V123h6.5v-7L323.9,114.6z"/>	<path fill="#FFFFFF" d="M357.2,162.2c-9.9,0-17.6-7.7-17.6-19.7c0-13.1,8.6-20.3,18.1-20.3c10.6,0,17.8,8,17.8,19.7  C375.5,156.1,365.7,162.2,357.2,162.2L357.2,162.2z M357.4,159c8,0,14.3-7.2,14.3-17c0-7-3.9-16.7-14-16.7  c-9.8,0-14.2,8.7-14.2,16.9C343.5,151.8,349.5,159,357.4,159L357.4,159z M366.8,106.4l-9.7,11h-2.9l7.1-11H366.8z"/>	<rect x="385.3" y="104.6" fill="#FFFFFF" width="3.8" height="56.7"/>	<path fill="#FFFFFF" d="M403.9,115.4c-1.8,0-3-1.5-3-3.3c0-1.8,1.4-3.3,3.1-3.3c1.8,0,3,1.5,3,3.3  C407.1,113.9,405.9,115.4,403.9,115.4L403.9,115.4z M402.2,123h3.8v38.3h-3.8V123z"/>	<path fill="#FFFFFF" d="M445.3,159.7c-1.7,0.8-5.7,2.5-11.2,2.5c-11,0-18.4-8.1-18.4-19.5c0-12.2,8.3-20.4,19.7-20.4  c4.7,0,8.6,1.4,10.1,2.4l-1.4,3.1c-1.8-1.1-4.8-2.2-9-2.2c-10.3,0-15.6,7.8-15.6,16.8c0,10.1,6.3,16.6,15.2,16.6  c4.6,0,7.5-1.3,9.6-2.2L445.3,159.7z"/>	<path fill="#FFFFFF" d="M478.3,152.2c0,3,0.1,6.1,0.6,9.1h-3.5l-0.6-5.5h-0.2c-1.9,3-6.1,6.4-12.3,6.4c-7.7,0-11.2-5.4-11.2-10.5  c0-8.9,7.7-14.2,23.4-14v-1c0-3.8-0.7-11.3-9.8-11.3c-3.3,0-6.9,0.9-9.7,2.9l-1.2-2.8c3.5-2.3,7.8-3.3,11.3-3.3  c11.1,0,13.2,8.3,13.2,15.1V152.2z M474.5,140.8c-8.4-0.2-19.4,1-19.4,10.2c0,5.5,3.7,8,7.7,8c6.4,0,10.1-3.9,11.3-7.7  c0.3-0.8,0.4-1.7,0.4-2.3V140.8z"/>	<path fill="#FFFFFF" d="M538.7,104.6v47.9c0,2.8,0.1,6.1,0.3,8.9h-3.4l-0.3-7.3h-0.2c-2,4.2-6.5,8.1-13.6,8.1  c-9.5,0-16.5-7.9-16.5-19.3c-0.1-12.8,7.8-20.7,17.2-20.7c6.6,0,10.9,3.4,12.5,6.8h0.2v-24.3H538.7z M534.9,138.2  c0-1-0.1-2.4-0.4-3.5c-1.3-5.1-5.8-9.3-12-9.3c-8.4,0-13.6,7.3-13.6,17.2c0,8.6,4.3,16.5,13.4,16.5c5.5,0,10.7-3.7,12.3-10  c0.3-1,0.4-2,0.4-3.2V138.2z"/>	<path fill="#FFFFFF" d="M552.1,141.8c0,12.2,6.7,17.1,14.6,17.1c5.6,0,8.5-1.1,10.6-2.2l1,3c-1.4,0.8-5.4,2.5-12,2.5  c-11,0-17.9-8-17.9-19.2c0-12.8,7.3-20.7,17.2-20.7c12.5,0,14.9,11.8,14.9,17.3c0,1,0,1.6-0.2,2.3H552.1z M576.6,138.8  c0.1-5.3-2.2-13.4-11.4-13.4c-8.5,0-12.1,7.5-12.8,13.4H576.6z"/>	<rect x="590.3" y="104.6" fill="#FFFFFF" width="3.8" height="56.7"/>	<path fill="#FFFFFF" d="M624.8,161.3v-53.8h3.6l20.9,31.8c4.4,6.7,7.5,11.7,10.1,16.9l0.2-0.1c-0.6-7.3-0.6-13.4-0.6-21.8v-26.8  h3.7v53.8h-3.5l-20.5-31.3c-4-6.1-7.7-11.8-10.5-17.4l-0.2,0.1c0.4,6.6,0.5,12.4,0.5,21.4v27.2H624.8z"/>	<path fill="#FFFFFF" d="M690,162.2c-9.9,0-17.6-7.7-17.6-19.7c0-13.1,8.6-20.3,18.1-20.3c10.6,0,17.8,8,17.8,19.7  C708.3,156.1,698.5,162.2,690,162.2L690,162.2z M690.2,159c8,0,14.3-7.2,14.3-17c0-7-3.9-16.7-14-16.7c-9.8,0-14.2,8.7-14.2,16.9  C676.2,151.8,682.3,159,690.2,159L690.2,159z"/>	<path fill="#FFFFFF" d="M718,134.5c0-3.8-0.1-7.7-0.3-11.5h3.5l0.2,7.7h0.2c1.7-4.9,5.7-8.6,10.9-8.6c0.6,0,1.1,0.1,1.6,0.2v3.6  c-0.6-0.1-1.1-0.1-1.8-0.1c-5.3,0-9,4.5-10.1,10.7c-0.2,1.1-0.3,2.4-0.3,3.7v21.1H718V134.5z"/>	<path fill="#FFFFFF" d="M748.9,114.6v8.5h10.9v3.1h-10.9V151c0,4.9,1.5,7.9,5.6,7.9c2,0,3.4-0.2,4.4-0.6l0.5,2.9  c-1.3,0.5-3,0.9-5.3,0.9c-2.8,0-5.1-0.9-6.5-2.6c-1.8-2-2.4-5.3-2.4-9.2v-24.2h-6.5V123h6.5v-7L748.9,114.6z"/>	<path fill="#FFFFFF" d="M768.4,141.8c0,12.2,6.7,17.1,14.6,17.1c5.6,0,8.5-1.1,10.6-2.2l1,3c-1.4,0.8-5.3,2.5-12,2.5  c-11,0-17.9-8-17.9-19.2c0-12.8,7.3-20.7,17.2-20.7c12.5,0,14.9,11.8,14.9,17.3c0,1,0,1.6-0.2,2.3H768.4z M792.8,138.8  c0.1-5.3-2.2-13.4-11.4-13.4c-8.5,0-12.1,7.5-12.8,13.4H792.8z"/>	<path fill="#7E9BC0" d="M184.8,94.9c0,51-41.4,92.4-92.4,92.4c-51,0-92.4-41.4-92.4-92.4c0-51,41.4-92.4,92.4-92.4  C143.4,2.5,184.8,43.8,184.8,94.9"/>	<path fill="#FFFFFF" d="M160.3,95.1c0,37.2-30.1,67.3-67.3,67.3c-37.2,0-67.3-30.1-67.3-67.3S55.8,27.7,93,27.7  C130.2,27.7,160.3,57.9,160.3,95.1"/>	<polygon fill="#BC6124" points="48.8,53.4 76.6,53.3 76.6,71.6 72.3,71.6 72.3,121.8 82.4,132.4 103.2,132.4 113.1,121.9   113.1,71.4 108.8,71.4 108.8,53.5 136.4,53.5 136.4,71.5 132.1,71.5 132.1,130.8 112.1,152.1 73.3,152.1 53.2,130.9 53.2,71.4   48.8,71.4  "/>	<path fill="#7E9BC0" d="M100.8,86.7h9.9L92.6,68.5L74.7,86.6h9.8l-5.4,35.9H90v6.5h5.1v-6.5h10.6L100.8,86.7z M93.8,127.8h-2.6  v-5.3h2.6V127.8z"/>	<polygon fill="#DE9F78" points="106.8,34.1 106.8,58.3 92.7,62.4 78.5,58.5 78.5,34.1 92.6,37.8  "/>	<path fill="#FFFFFF" d="M11,121.9l7.2-2.1c2.4-0.7,3.2-2,2.8-3.5c-0.5-1.6-1.9-2.3-4.3-1.5l-7.1,2.1l-0.7-2.2l7-2.1  c3.8-1.1,6,0.3,6.9,3.3c0.8,2.8-0.2,5.1-4.1,6.3l-7,2.1L11,121.9z"/>	<path fill="#FFFFFF" d="M20.7,108.8L8,110.4l-0.3-2.7l5-3.9c1.3-1,2.7-1.9,4-2.7l0,0c-1.7,0.4-3.3,0.6-5.2,0.8l-4.4,0.5l-0.3-2.1  l12.7-1.5l0.3,2.4l-5.2,4c-1.3,1-2.7,2-4.1,2.8l0,0.1c1.6-0.3,3.3-0.5,5.4-0.8l4.5-0.5L20.7,108.8z"/>	<polygon fill="#FFFFFF" points="6.8,94.1 19.6,94.1 19.6,96.4 6.8,96.4  "/>	<path fill="#FFFFFF" d="M19.8,88.8L6.7,91.6l0.3-2.5l6-1.1c1.7-0.3,3.2-0.6,4.8-0.8l0,0c-1.5-0.5-3-1.1-4.5-1.8l-5.6-2.5l0.3-2.5  l12.3,5.7L19.8,88.8z"/>	<polygon fill="#FFFFFF" points="17.1,72.5 15.9,77.2 19.6,78.1 20.9,72.9 22.8,73.4 20.9,80.9 8.5,77.8 10.3,70.6 12.1,71 10.9,76   14.1,76.8 15.3,72.1  "/>	<path fill="#FFFFFF" d="M11.5,67.2c0.2-0.9,0.5-2.1,1-3.4c0.7-1.7,1.4-2.7,2.4-3.3c0.8-0.4,1.8-0.5,2.8-0.1  c1.5,0.6,2.2,2.1,2.1,3.3l0.1,0c0.7-0.7,1.7-0.9,2.9-0.7c1.6,0.2,3.1,0.4,3.7,0.4l-0.9,2.2c-0.4,0-1.5,0-3.1-0.3  c-1.7-0.3-2.4,0.1-2.9,1.3l-0.4,1.1l4.9,1.9l-0.9,2.2L11.5,67.2z M17.6,67.1l0.5-1.3c0.6-1.5,0.2-2.7-1-3.1  c-1.3-0.5-2.3,0.1-2.8,1.6c-0.3,0.7-0.4,1.2-0.4,1.4L17.6,67.1z"/>	<path fill="#FFFFFF" d="M25,61c0.7-0.4,1.6-1.3,2.2-2.3c0.7-1.3,0.5-2.4-0.4-2.9c-0.8-0.5-1.7-0.2-3,0.9c-1.7,1.5-3.3,2.1-4.9,1.2  c-1.8-1-2.4-3.3-1-5.8c0.7-1.2,1.4-1.9,2.1-2.3l1.4,1.4c-0.4,0.3-1.2,0.9-1.8,1.9c-0.7,1.3-0.4,2.2,0.3,2.6c0.9,0.5,1.6,0.1,3-1.1  c1.8-1.5,3.3-1.9,4.9-1c1.8,1,2.6,3.2,1,6.1c-0.7,1.2-1.7,2.2-2.4,2.6L25,61z"/>			<rect x="21.1" y="48.3" transform="matrix(-0.821 -0.5709 0.5709 -0.821 21.8948 105.7059)" fill="#FFFFFF" width="12.8" height="2.3"/>	<path fill="#FFFFFF" d="M25.3,41.8c0.6-0.9,1.3-1.9,2.3-3c1.6-1.8,3-2.7,4.6-2.9c1.6-0.3,3.2,0.2,4.8,1.6c1.7,1.5,2.5,3.2,2.5,4.9  c0,1.7-0.9,3.6-2.5,5.5c-0.9,1-1.6,1.7-2.2,2.2L25.3,41.8z M34.9,47.2c0.3-0.2,0.6-0.6,0.9-0.9c2-2.3,2-4.7-0.5-6.9  c-2.1-1.9-4.4-1.7-6.3,0.4c-0.5,0.6-0.8,1-1,1.3L34.9,47.2z"/>	<path fill="#FFFFFF" d="M42.6,36.8l1.4,3.5l-1.9,1.5l-4.9-12.5l2.3-1.9l11.3,7.3l-1.9,1.6l-3.2-2.1L42.6,36.8z M44.3,33.1l-2.8-1.8  c-0.7-0.4-1.4-1-2-1.4l0,0c0.3,0.7,0.7,1.5,1,2.2l1.2,3.1L44.3,33.1z"/>	<path fill="#FFFFFF" d="M45.6,23c0.8-0.7,1.9-1.4,3.1-2.1c2.1-1.2,3.7-1.6,5.2-1.3c1.6,0.2,3,1.2,4.1,3.1c1.1,2,1.3,3.8,0.8,5.4  c-0.5,1.6-2,3.2-4.2,4.4c-1.2,0.7-2.1,1.1-2.8,1.4L45.6,23z M53.1,31.3c0.3-0.1,0.7-0.4,1.2-0.6c2.6-1.5,3.4-3.9,1.7-6.7  c-1.4-2.4-3.6-3-6.1-1.6c-0.6,0.4-1.1,0.7-1.3,0.9L53.1,31.3z"/>	<path fill="#FFFFFF" d="M74.9,23.3c-0.4,0.4-1.5,1.1-3,1.6c-3.9,1.3-7-0.4-8.2-4.1c-1.3-4,0.7-7.3,4.4-8.5c1.5-0.5,2.6-0.5,3.1-0.4  l0.1,1.9c-0.7-0.1-1.5,0-2.5,0.3c-2.5,0.8-3.8,2.9-2.8,5.9c0.9,2.7,3,3.9,5.7,3c0.9-0.3,1.8-0.8,2.3-1.2L74.9,23.3z"/>	<path fill="#FFFFFF" d="M78.6,19.3l-0.5,3.8l-2.4,0.4l2-13.3l2.9-0.5l6.2,11.9l-2.5,0.4l-1.7-3.4L78.6,19.3z M81.9,17L80.4,14  c-0.4-0.7-0.7-1.6-1-2.2l0,0c-0.1,0.8-0.1,1.7-0.2,2.5l-0.5,3.3L81.9,17z"/>	<polygon fill="#FFFFFF" points="88.7,10.9 85.1,11 85,9.1 94.7,8.7 94.7,10.7 91,10.8 91.5,21.6 89.1,21.7  "/>	<path fill="#FFFFFF" d="M107.7,16.2c-0.5,4.3-3.3,6.4-6.8,6c-3.6-0.4-5.6-3.4-5.2-7.1c0.4-3.9,3.2-6.4,6.8-6  C106.2,9.5,108.1,12.6,107.7,16.2 M98.2,15.3c-0.3,2.6,0.8,4.8,3,5c2.2,0.2,3.7-1.7,4-4.4c0.3-2.4-0.7-4.8-3-5  C99.9,10.7,98.4,12.7,98.2,15.3"/>	<polygon fill="#FFFFFF" points="111.7,10.8 114,11.4 111.2,21.9 116.3,23.2 115.8,25.1 108.5,23.2  "/>			<rect x="113.9" y="18.9" transform="matrix(0.3311 -0.9436 0.9436 0.3311 61.5612 126.918)" fill="#FFFFFF" width="12.8" height="2.3"/>	<path fill="#FFFFFF" d="M130,31c-0.6,0-1.8-0.3-3.2-0.9c-3.7-1.8-4.8-5.2-3-8.7c1.9-3.8,5.6-4.8,9.1-3.1c1.4,0.7,2.2,1.4,2.5,1.9  l-1.3,1.5c-0.4-0.5-1.1-1.1-2-1.5c-2.3-1.1-4.7-0.5-6.1,2.3c-1.2,2.5-0.6,4.9,2,6.1c0.8,0.4,1.8,0.7,2.5,0.7L130,31z"/>	<path fill="#FFFFFF" d="M135.4,30.6l-3,2.3l-2-1.4l10.7-8.2l2.4,1.7L139.6,38l-2.1-1.4l1.1-3.6L135.4,30.6z M139.4,31.3l1-3.2  c0.2-0.8,0.6-1.6,0.8-2.3l0,0c-0.6,0.5-1.3,1.1-1.9,1.6l-2.6,2L139.4,31.3z"/>	<path fill="#FFFFFF" d="M152.7,32.8c0.8,0.7,1.8,1.5,2.7,2.6c1.6,1.8,2.4,3.3,2.4,4.8c0.1,1.6-0.5,3.2-2.1,4.7  c-1.7,1.6-3.4,2.1-5.1,2c-1.7-0.1-3.5-1.2-5.2-3.1c-0.9-1-1.6-1.8-2-2.4L152.7,32.8z M146.3,41.9c0.2,0.3,0.5,0.6,0.8,1  c2.1,2.2,4.5,2.4,6.9,0.2c2.1-1.9,2.2-4.2,0.2-6.3c-0.5-0.5-0.9-0.9-1.2-1.1L146.3,41.9z"/>	<polygon fill="#FFFFFF" points="160.4,53.4 157.7,49.4 154.6,51.6 157.6,56 156,57.1 151.7,50.7 162.2,43.5 166.4,49.7 164.8,50.7   162,46.5 159.2,48.4 162,52.4  "/>	<polygon fill="#FFFFFF" points="168.2,52.7 169.3,54.8 159.6,59.7 162,64.4 160.3,65.3 156.8,58.6  "/>	<path fill="#FFFFFF" d="M162.2,70l12.3-3.5l0.7,2.6l-4.4,4.7c-1.1,1.2-2.4,2.3-3.5,3.3l0,0c1.6-0.6,3.2-1.1,5.1-1.7l4.3-1.2  l0.6,2.1L165,79.8l-0.7-2.3l4.5-4.8c1.1-1.2,2.4-2.4,3.6-3.4l0-0.1c-1.6,0.5-3.2,1-5.2,1.6l-4.4,1.3L162.2,70z"/>	<path fill="#FFFFFF" d="M173.2,92.5c-4.3,0.5-7-1.9-7.4-5.4c-0.4-3.6,2.1-6.2,5.8-6.6c3.9-0.4,6.9,1.8,7.3,5.3  C179.4,89.6,176.8,92.1,173.2,92.5 M172,83c-2.6,0.3-4.5,1.8-4.3,4c0.2,2.2,2.5,3.3,5.1,3c2.4-0.3,4.5-1.7,4.3-4  C176.9,83.7,174.6,82.7,172,83"/>	<path fill="#FFFFFF" d="M179.2,95.3c0.1,0.9,0.2,2.2,0.1,3.5c-0.1,1.8-0.5,3.1-1.2,3.9c-0.6,0.7-1.5,1-2.6,1  c-1.7-0.1-2.7-1.3-3.1-2.5h-0.1c-0.4,0.9-1.3,1.4-2.6,1.7c-1.6,0.3-3.1,0.6-3.6,0.8l0.1-2.4c0.4-0.2,1.4-0.4,3.1-0.7  c1.7-0.3,2.3-0.9,2.4-2.2l0.1-1.2l-5.3-0.3l0.1-2.3L179.2,95.3z M173.4,97.4l-0.1,1.4c-0.1,1.6,0.7,2.6,2,2.6  c1.4,0.1,2.1-0.9,2.2-2.4c0-0.7,0-1.2,0-1.4L173.4,97.4z"/>	<polygon fill="#FFFFFF" points="176.1,109.5 176.7,105.9 178.7,106.3 176.9,115.8 174.9,115.4 175.6,111.8 165,109.8 165.4,107.5    "/>	<polygon fill="#FFFFFF" points="167.1,123.1 168.6,118.5 165,117.3 163.4,122.4 161.5,121.8 163.9,114.5 176.1,118.5 173.8,125.5   171.9,124.9 173.5,120.1 170.4,119.1 168.9,123.6  "/>	<path fill="#FFFFFF" d="M70.6,179.3c-0.6,0.1-1.9,0-3.4-0.5c-4-1.3-5.6-4.6-4.3-8.4c1.4-4.1,5.1-5.7,8.9-4.4  c1.5,0.5,2.5,1.2,2.8,1.6l-1.1,1.7c-0.5-0.5-1.3-1-2.3-1.3c-2.5-0.8-4.9,0.2-5.9,3.2c-0.9,2.8,0.1,5,2.9,6c0.9,0.3,1.9,0.4,2.6,0.4  L70.6,179.3z"/>	<polygon fill="#FFFFFF" points="80.7,168.3 80,173.5 85.6,174.2 86.3,169 88.6,169.3 86.9,182.4 84.6,182.1 85.3,176.3 79.8,175.6   79,181.3 76.6,181 78.3,167.9  "/>	<polygon fill="#FFFFFF" points="95.7,169.2 95.9,182.4 93.5,182.5 93.3,169.3  "/>	<polygon fill="#FFFFFF" points="100.4,169 102.7,168.6 104.4,179.7 109.7,178.9 110,180.9 102.3,182  "/>	<polygon fill="#FFFFFF" points="120.9,171.8 116.1,173.3 117.3,177 122.6,175.3 123.2,177.2 115.6,179.6 111.6,167 119,164.7   119.5,166.6 114.5,168.1 115.5,171.4 120.3,169.9  "/>	<path fill="#FFFFFF" d="M85.1,55.5V40.8h4.8l3.8,5.4c1.1,1.6,2.2,3.4,3,5h0.1c-0.2-1.9-0.3-3.9-0.3-6.2v-4.3h3.8v14.7h-4.4L92,49.9  c-1.1-1.6-2.3-3.5-3.2-5.2h-0.1c0.1,2,0.2,4,0.2,6.4v4.4H85.1z"/>	<polygon fill="#FFFFFF" points="99,112.5 93.7,112.5 93.7,107 91.2,107 91.2,112.5 85.8,112.5 85.8,115 91.2,115 91.2,127.8   93.8,127.8 93.8,115 99,115  "/>	<g>		<path fill="#FFFFFF" d="M102.2,7.9l0-0.2c1.2-1.1,2-2,2.5-2.5l3.2,0.4l0,0.2c-0.4,0.3-1,0.7-1.8,1.2c-0.8,0.5-1.5,0.9-2,1.2   L102.2,7.9z"/>	</g></g></svg>