<svg xmlns="http://www.w3.org/2000/svg" id="Capa_1" data-name="Capa 1" viewBox="0 0 226 226"><defs><style>      .cls-1 {        fill: #fff;        stroke-width: 0px;      }    </style></defs><path class="cls-1" d="m16.08,79.2l5.03,2.27-2.05-20.3-16.56,11.93,5.06,2.28c-4.31,12.05-6.49,24.7-6.49,37.63,0,25.85,9.02,51.07,25.4,71.01l7.19-5.91c-15.02-18.28-23.29-41.4-23.29-65.1,0-11.61,1.92-22.97,5.7-33.8Z"></path><path class="cls-1" d="m113,215.62c-11.54,0-22.83-1.9-33.6-5.63l2.26-5.04-20.3,2.09,11.96,16.53,2.27-5.07c11.99,4.25,24.56,6.41,37.42,6.41,25.72,0,50.84-8.94,70.73-25.18l-5.88-7.21c-18.23,14.88-41.26,23.08-64.85,23.08Z"></path><path class="cls-1" d="m224.93,113c0-26.09-9.17-51.48-25.82-71.51l-7.15,5.95c15.26,18.36,23.67,41.64,23.67,65.56,0,11.9-2.01,23.51-5.98,34.58l-5.02-2.31,1.89,20.32,16.65-11.79-5.04-2.32c4.51-12.31,6.79-25.24,6.79-38.48Z"></path><path class="cls-1" d="m147.76,16.42l-2.32,5.01,20.32-1.85-11.76-16.67-2.33,5.03c-12.36-4.56-25.36-6.86-38.68-6.86-26.04,0-51.4,9.14-71.41,25.74l5.94,7.16c18.34-15.22,41.6-23.6,65.48-23.6,11.96,0,23.64,2.04,34.76,6.04Z"></path><polygon class="cls-1" points="75.53 94.97 138.99 60.12 141.67 64.99 152.24 47.53 131.84 47.1 134.51 51.96 71.05 86.82 75.53 94.97"></polygon><polygon class="cls-1" points="171.66 151.93 153.86 151.93 153.86 74.39 130.24 74.39 130.24 151.93 125.06 151.93 125.06 92.51 101.44 92.51 101.44 151.93 96.26 151.93 96.26 110.95 72.64 110.95 72.64 151.93 54.85 151.93 54.85 161.23 171.66 161.23 171.66 151.93"></polygon></svg>