<svg xmlns="http://www.w3.org/2000/svg" id="Capa_1" data-name="Capa 1" viewBox="0 0 226 226"><defs><style>      .cls-1 {        fill: #fff;        stroke-width: 0px;      }    </style></defs><path class="cls-1" d="m225.45.72H45.98v50.62c-13.39,9.14-22.19,24.52-22.19,41.92s8.8,32.78,22.19,41.92v17.34C19.37,163.7.61,190.02.55,220.62v4.66s147.95,0,147.95,0v-4.66c-.02-11.81-2.83-22.98-7.81-32.89h84.75V.72ZM33.09,93.26c0-11.8,4.95-22.45,12.89-30,2.77-2.64,5.89-4.89,9.3-6.68,5.76-3.03,12.3-4.75,19.25-4.75,22.85,0,41.43,18.59,41.43,41.43s-18.59,41.44-41.43,41.44c-6.95,0-13.5-1.72-19.25-4.76-3.41-1.79-6.54-4.04-9.3-6.68-7.94-7.55-12.89-18.21-12.89-30Zm25.81,64.74c5-1.25,10.24-1.92,15.63-1.92,4.96,0,9.77.56,14.41,1.62l-15.16,15.16-14.88-14.87Zm80.12,57.98H10.04c1.71-23.37,15.91-43.34,35.94-53.24,1.01-.5,2.04-.98,3.08-1.43l24.72,24.72,7.61-7.61,17.55-17.55c9.47,3.88,17.82,9.94,24.43,17.55,2.51,2.89,4.77,6,6.74,9.3,5.01,8.38,8.17,17.99,8.92,28.26Zm77.13-37.56h-81.01c-2.06-2.96-4.35-5.76-6.82-8.38l35.3-35.3-6.58-6.58-35.52,35.52s0,0,0,0c-12.79-10.56-29.17-16.9-47-16.9-6.65,0-13.11.89-19.25,2.55v-9.12c5.94,2.44,12.44,3.8,19.25,3.8,27.98,0,50.74-22.76,50.74-50.74s-22.76-50.74-50.74-50.74c-6.81,0-13.32,1.35-19.25,3.8V10.02h160.87v168.4Z"></path><rect class="cls-1" x="139.48" y="28.58" width="40.14" height="9.3"></rect><rect class="cls-1" x="139.48" y="57.37" width="59.62" height="9.3"></rect><rect class="cls-1" x="139.48" y="85.71" width="59.62" height="9.3"></rect></svg>